<?xml version="1.0" encoding="UTF-8" standalone="no"?>
<!-- Created with Inkscape (http://www.inkscape.org/) -->

<svg
   xmlns:dc="http://purl.org/dc/elements/1.1/"
   xmlns:cc="http://creativecommons.org/ns#"
   xmlns:rdf="http://www.w3.org/1999/02/22-rdf-syntax-ns#"
   xmlns:svg="http://www.w3.org/2000/svg"
   xmlns="http://www.w3.org/2000/svg"
   xmlns:sodipodi="http://sodipodi.sourceforge.net/DTD/sodipodi-0.dtd"
   xmlns:inkscape="http://www.inkscape.org/namespaces/inkscape"
   width="450"
   height="350"
   viewBox="0 0 450.00001 350.00001"
   id="svg2"
   version="1.1"
   inkscape:version="0.92.1 r15371"
   sodipodi:docname="739b5e2a2435f6e1ec2993791b423146.svg">
  <defs
     id="defs4" />
  <sodipodi:namedview
     id="base"
     pagecolor="#ffffff"
     bordercolor="#666666"
     borderopacity="1.0"
     inkscape:pageopacity="0"
     inkscape:pageshadow="2"
     inkscape:zoom="1.1665378"
     inkscape:cx="214.16045"
     inkscape:cy="173.74652"
     inkscape:document-units="px"
     inkscape:current-layer="layer1"
     showgrid="true"
     units="px"
     inkscape:window-width="1280"
     inkscape:window-height="657"
     inkscape:window-x="-8"
     inkscape:window-y="-8"
     inkscape:window-maximized="1"
     inkscape:pagecheckerboard="true"
     inkscape:showpageshadow="true"
     borderlayer="true"
     inkscape:snap-others="false"
     inkscape:snap-midpoints="true"
     inkscape:snap-global="false">
    <inkscape:grid
       type="xygrid"
       id="grid4136"
       empspacing="50"
       dotted="false"
       snapvisiblegridlinesonly="false"
       enabled="true" />
    <inkscape:grid
       type="xygrid"
       id="grid4495"
       enabled="false" />
  </sodipodi:namedview>
  <metadata
     id="metadata7">
    <rdf:RDF>
      <cc:Work
         rdf:about="">
        <dc:format>image/svg+xml</dc:format>
        <dc:type
           rdf:resource="http://purl.org/dc/dcmitype/StillImage" />
        <dc:title></dc:title>
      </cc:Work>
    </rdf:RDF>
  </metadata>
  <g
     inkscape:label="Calque 1"
     inkscape:groupmode="layer"
     id="layer1"
     transform="translate(0,-702.36216)"
     style="display:inline">
    <path
       style="fill:none;fill-rule:evenodd;stroke:#dddddd;stroke-width:0.75px;stroke-linecap:butt;stroke-linejoin:miter;stroke-opacity:1"
       d="M 0,901.86216 H 450"
       id="path4153"
       inkscape:connector-curvature="0" />
    <path
       style="fill:none;fill-rule:evenodd;stroke:#dddddd;stroke-width:0.75px;stroke-linecap:butt;stroke-linejoin:miter;stroke-opacity:1"
       d="M 0,851.86216 H 450"
       id="path4153-6"
       inkscape:connector-curvature="0" />
    <path
       style="fill:none;fill-rule:evenodd;stroke:#dddddd;stroke-width:0.75px;stroke-linecap:butt;stroke-linejoin:miter;stroke-opacity:1"
       d="M 0,1001.8622 H 450"
       id="path4153-60"
       inkscape:connector-curvature="0" />
    <path
       style="fill:none;fill-rule:evenodd;stroke:#dddddd;stroke-width:0.75px;stroke-linecap:butt;stroke-linejoin:miter;stroke-opacity:1"
       d="M 0,1051.9872 H 450"
       id="path4153-5"
       inkscape:connector-curvature="0" />
    <path
       style="fill:none;fill-rule:evenodd;stroke:#dddddd;stroke-width:1px;stroke-linecap:butt;stroke-linejoin:miter;stroke-opacity:1"
       d="M 250.5,618.16865 V 1218.1688"
       id="path4193"
       inkscape:connector-curvature="0" />
    <path
       style="fill:none;fill-rule:evenodd;stroke:#dddddd;stroke-width:1px;stroke-linecap:butt;stroke-linejoin:miter;stroke-opacity:1"
       d="M 150.5,623.07162 V 1223.0718"
       id="path4193-5"
       inkscape:connector-curvature="0" />
    <path
       style="fill:none;fill-rule:evenodd;stroke:#dddddd;stroke-width:1px;stroke-linecap:butt;stroke-linejoin:miter;stroke-opacity:1"
       d="m 100.5,623.7392 v 600.0002"
       id="path4193-55"
       inkscape:connector-curvature="0" />
    <path
       style="fill:none;fill-rule:evenodd;stroke:#dddddd;stroke-width:1px;stroke-linecap:butt;stroke-linejoin:miter;stroke-opacity:1"
       d="M 50.5,626.41432 V 1226.4145"
       id="path4193-8"
       inkscape:connector-curvature="0" />
    <path
       style="fill:none;fill-rule:evenodd;stroke:#dddddd;stroke-width:1px;stroke-linecap:butt;stroke-linejoin:miter;stroke-opacity:1"
       d="m 200.5,629.3659 v 600.0002"
       id="path4193-7"
       inkscape:connector-curvature="0" />
    <path
       style="fill:none;fill-rule:evenodd;stroke:#dddddd;stroke-width:0.75px;stroke-linecap:butt;stroke-linejoin:miter;stroke-opacity:1"
       d="M 0,951.86279 H 450"
       id="path4153-6-3"
       inkscape:connector-curvature="0" />
    <path
       style="fill:none;fill-rule:evenodd;stroke:#dddddd;stroke-width:0.75px;stroke-linecap:butt;stroke-linejoin:miter;stroke-opacity:1"
       d="M 0,751.86216 H 450"
       id="path4153-8"
       inkscape:connector-curvature="0" />
    <path
       style="fill:none;fill-rule:evenodd;stroke:#dddddd;stroke-width:0.75px;stroke-linecap:butt;stroke-linejoin:miter;stroke-opacity:1"
       d="M 0,701.98716 H 450"
       id="path4153-6-5"
       inkscape:connector-curvature="0" />
    <path
       style="fill:none;fill-rule:evenodd;stroke:#dddddd;stroke-width:0.75px;stroke-linecap:butt;stroke-linejoin:miter;stroke-opacity:1"
       d="M 0,801.86279 H 450"
       id="path4153-6-3-0"
       inkscape:connector-curvature="0" />
    <path
       style="fill:none;fill-rule:evenodd;stroke:#dddddd;stroke-width:1px;stroke-linecap:butt;stroke-linejoin:miter;stroke-opacity:1"
       d="M 450.5,502.34633 V 1102.3465"
       id="path4193-04"
       inkscape:connector-curvature="0" />
    <path
       style="fill:none;fill-rule:evenodd;stroke:#dddddd;stroke-width:1px;stroke-linecap:butt;stroke-linejoin:miter;stroke-opacity:1"
       d="m 350.5,502.3463 v 600.0002"
       id="path4193-5-2"
       inkscape:connector-curvature="0" />
    <path
       style="fill:none;fill-rule:evenodd;stroke:#dddddd;stroke-width:1px;stroke-linecap:butt;stroke-linejoin:miter;stroke-opacity:1"
       d="M 300.5,502.34629 V 1102.3465"
       id="path4193-55-9"
       inkscape:connector-curvature="0" />
    <path
       style="fill:none;fill-rule:evenodd;stroke:#dddddd;stroke-width:1px;stroke-linecap:butt;stroke-linejoin:miter;stroke-opacity:1"
       d="M 0.5,486.41425 V 1086.4144"
       id="path4193-8-8"
       inkscape:connector-curvature="0" />
    <path
       style="fill:none;fill-rule:evenodd;stroke:#dddddd;stroke-width:1px;stroke-linecap:butt;stroke-linejoin:miter;stroke-opacity:1"
       d="m 400.5,502.3463 v 600.0002"
       id="path4193-7-7"
       inkscape:connector-curvature="0" />
    <ellipse
       style="opacity:1;fill:#ffffff;fill-opacity:1;stroke:#000000;stroke-width:1.89539266;stroke-miterlimit:4;stroke-dasharray:none;stroke-dashoffset:0;stroke-opacity:1"
       id="path4555"
       cx="224.95351"
       cy="877.23492"
       rx="7.0058041"
       ry="7.0023036" />
    <path
       style="fill:none;stroke:#000000;stroke-width:1.60000002;stroke-linecap:butt;stroke-linejoin:miter;stroke-miterlimit:4;stroke-dasharray:none;stroke-opacity:1"
       d="m 217.7298,877.11895 14.8483,-0.0788"
       id="path4559"
       inkscape:connector-curvature="0" />
    <path
       style="fill:#000000;stroke:#000000;stroke-width:1.60000002;stroke-linecap:square;stroke-linejoin:miter;stroke-miterlimit:4;stroke-dasharray:none;stroke-opacity:1"
       d="m 225.00694,870.39089 0.14551,14 v 0 0"
       id="path4557-5"
       inkscape:connector-curvature="0" />
    <g
       aria-label="A"
       style="font-style:normal;font-variant:normal;font-weight:normal;font-stretch:normal;font-size:40px;line-height:1.25;font-family:ScratchFont;-inkscape-font-specification:ScratchFont;letter-spacing:0px;word-spacing:0px;fill:#cccccc;fill-opacity:1;stroke:none"
       id="text4507"
       transform="matrix(1,0,0,0.76637995,-49.260893,130.05962)">
      <path
         d="m 68.984261,765.68939 4.398437,-11.45312 h 1.632813 l 4.6875,11.45312 h -1.726563 l -1.335937,-3.46875 h -4.789063 l -1.257812,3.46875 z m 3.304687,-4.70312 h 3.882813 l -1.195313,-3.17188 q -0.546875,-1.44531 -0.8125,-2.375 -0.21875,1.10156 -0.617187,2.1875 z"
         style="font-style:normal;font-variant:normal;font-weight:normal;font-stretch:normal;font-size:16px;font-family:Arial;-inkscape-font-specification:Arial;fill:#cccccc"
         id="path4755"
         inkscape:connector-curvature="0" />
    </g>
    <g
       aria-label="1"
       style="font-style:normal;font-variant:normal;font-weight:normal;font-stretch:normal;font-size:40px;line-height:1.25;font-family:ScratchFont;-inkscape-font-specification:ScratchFont;letter-spacing:0px;word-spacing:0px;fill:#cccccc;fill-opacity:1;stroke:none"
       id="text4511"
       transform="translate(-48.58757,2.3372809)">
      <path
         d="m 56.724243,733.53845 h -1.40625 v -8.96094 q -0.507812,0.48438 -1.335937,0.96875 -0.820313,0.48438 -1.476563,0.72657 v -1.35938 q 1.179688,-0.55469 2.0625,-1.34375 0.882813,-0.78906 1.25,-1.53125 h 0.90625 z"
         style="font-style:normal;font-variant:normal;font-weight:normal;font-stretch:normal;font-size:16px;font-family:Arial;-inkscape-font-specification:Arial;fill:#cccccc"
         id="path4719"
         inkscape:connector-curvature="0" />
    </g>
    <g
       aria-label="2"
       style="font-style:normal;font-variant:normal;font-weight:normal;font-stretch:normal;font-size:40px;line-height:1.25;font-family:ScratchFont;-inkscape-font-specification:ScratchFont;letter-spacing:0px;word-spacing:0px;fill:#cccccc;fill-opacity:1;stroke:none"
       id="text4511-8"
       transform="translate(-48.58757,2.3372809)">
      <path
         d="m 60.067638,780.01758 v 1.35156 h -7.570312 q -0.01563,-0.50781 0.164062,-0.97656 0.289063,-0.77344 0.921875,-1.52344 0.640625,-0.75 1.84375,-1.73437 1.867188,-1.53125 2.523438,-2.42188 0.65625,-0.89844 0.65625,-1.69531 0,-0.83594 -0.601563,-1.40625 -0.59375,-0.57813 -1.554687,-0.57813 -1.015625,0 -1.625,0.60938 -0.609375,0.60937 -0.617188,1.6875 l -1.445312,-0.14844 q 0.148437,-1.61719 1.117187,-2.46094 0.96875,-0.85156 2.601563,-0.85156 1.648437,0 2.609375,0.91406 0.960937,0.91407 0.960937,2.26563 0,0.6875 -0.28125,1.35156 -0.28125,0.66406 -0.9375,1.39844 -0.648437,0.73437 -2.164062,2.01562 -1.265625,1.0625 -1.625,1.44532 -0.359375,0.375 -0.59375,0.75781 z"
         style="font-style:normal;font-variant:normal;font-weight:normal;font-stretch:normal;font-size:16px;font-family:Arial;-inkscape-font-specification:Arial;fill:#cccccc"
         id="path4722"
         inkscape:connector-curvature="0" />
    </g>
    <g
       aria-label="3"
       style="font-style:normal;font-variant:normal;font-weight:normal;font-stretch:normal;font-size:40px;line-height:1.25;font-family:ScratchFont;-inkscape-font-specification:ScratchFont;letter-spacing:0px;word-spacing:0px;fill:#cccccc;fill-opacity:1;stroke:none"
       id="text4511-5"
       transform="translate(-48.58757,2.3372809)">
      <path
         d="m 52.640526,827.76642 1.40625,-0.1875 q 0.242187,1.19531 0.820312,1.72656 0.585938,0.52344 1.421875,0.52344 0.992188,0 1.671875,-0.6875 0.6875,-0.6875 0.6875,-1.70313 0,-0.96875 -0.632812,-1.59375 -0.632813,-0.63281 -1.609375,-0.63281 -0.398438,0 -0.992188,0.15625 l 0.15625,-1.23437 q 0.140625,0.0156 0.226563,0.0156 0.898437,0 1.617187,-0.46875 0.71875,-0.46875 0.71875,-1.44531 0,-0.77344 -0.523437,-1.28125 -0.523438,-0.50781 -1.351563,-0.50781 -0.820312,0 -1.367187,0.51562 -0.546875,0.51563 -0.703125,1.54688 l -1.40625,-0.25 q 0.257812,-1.41407 1.171875,-2.1875 0.914062,-0.78125 2.273437,-0.78125 0.9375,0 1.726563,0.40625 0.789062,0.39843 1.203125,1.09375 0.421875,0.69531 0.421875,1.47656 0,0.74219 -0.398438,1.35156 -0.398437,0.60938 -1.179687,0.96875 1.015625,0.23438 1.578125,0.97656 0.5625,0.73438 0.5625,1.84375 0,1.5 -1.09375,2.54688 -1.09375,1.03906 -2.765625,1.03906 -1.507813,0 -2.507813,-0.89844 -0.992187,-0.89843 -1.132812,-2.32812 z"
         style="font-style:normal;font-variant:normal;font-weight:normal;font-stretch:normal;font-size:16px;font-family:Arial;-inkscape-font-specification:Arial;fill:#cccccc"
         id="path4725"
         inkscape:connector-curvature="0" />
    </g>
    <g
       aria-label="4"
       style="font-style:normal;font-variant:normal;font-weight:normal;font-stretch:normal;font-size:40px;line-height:1.25;font-family:ScratchFont;-inkscape-font-specification:ScratchFont;letter-spacing:0px;word-spacing:0px;fill:#cccccc;fill-opacity:1;stroke:none"
       id="text4511-9"
       transform="translate(-48.58757,2.3372809)">
      <path
         d="m 57.597149,881.87012 v -2.74219 h -4.96875 v -1.28906 l 5.226562,-7.42188 h 1.148438 v 7.42188 h 1.546875 v 1.28906 h -1.546875 v 2.74219 z m 0,-4.03125 v -5.16407 l -3.585938,5.16407 z"
         style="font-style:normal;font-variant:normal;font-weight:normal;font-stretch:normal;font-size:16px;font-family:Arial;-inkscape-font-specification:Arial;fill:#cccccc"
         id="path4728"
         inkscape:connector-curvature="0" />
    </g>
    <g
       aria-label="5"
       style="font-style:normal;font-variant:normal;font-weight:normal;font-stretch:normal;font-size:40px;line-height:1.25;font-family:ScratchFont;-inkscape-font-specification:ScratchFont;letter-spacing:0px;word-spacing:0px;fill:#cccccc;fill-opacity:1;stroke:none"
       id="text4511-6"
       transform="translate(-48.58757,2.3372809)">
      <path
         d="m 52.544117,928.65881 1.476562,-0.125 q 0.164063,1.07813 0.757813,1.625 0.601562,0.53907 1.445312,0.53907 1.015625,0 1.71875,-0.76563 0.703125,-0.76562 0.703125,-2.03125 0,-1.20312 -0.679687,-1.89844 -0.671875,-0.69531 -1.765625,-0.69531 -0.679688,0 -1.226563,0.3125 -0.546875,0.30469 -0.859375,0.79688 l -1.320312,-0.17188 1.109375,-5.88281 h 5.695312 v 1.34375 h -4.570312 l -0.617188,3.07812 q 1.03125,-0.71875 2.164063,-0.71875 1.5,0 2.53125,1.03907 1.03125,1.03906 1.03125,2.67187 0,1.55469 -0.90625,2.6875 -1.101563,1.39063 -3.007813,1.39063 -1.5625,0 -2.554687,-0.875 -0.984375,-0.875 -1.125,-2.32032 z"
         style="font-style:normal;font-variant:normal;font-weight:normal;font-stretch:normal;font-size:16px;font-family:Arial;-inkscape-font-specification:Arial;fill:#cccccc"
         id="path4697"
         inkscape:connector-curvature="0" />
    </g>
    <g
       aria-label="6"
       style="font-style:normal;font-variant:normal;font-weight:normal;font-stretch:normal;font-size:40px;line-height:1.25;font-family:ScratchFont;-inkscape-font-specification:ScratchFont;letter-spacing:0px;word-spacing:0px;fill:#cccccc;fill-opacity:1;stroke:none"
       id="text4511-4"
       transform="translate(-48.58757,2.3372809)">
      <path
         d="m 59.840992,971.89612 -1.398438,0.10937 q -0.1875,-0.82812 -0.53125,-1.20312 -0.570312,-0.60156 -1.40625,-0.60156 -0.671875,0 -1.179687,0.375 -0.664063,0.48437 -1.046875,1.41406 -0.382813,0.92969 -0.398438,2.64844 0.507813,-0.77344 1.242188,-1.14844 0.734375,-0.375 1.539062,-0.375 1.40625,0 2.390625,1.03906 0.992188,1.03125 0.992188,2.67188 0,1.07812 -0.46875,2.00781 -0.460938,0.92187 -1.273438,1.41406 -0.8125,0.49219 -1.84375,0.49219 -1.757812,0 -2.867187,-1.28906 -1.109375,-1.29688 -1.109375,-4.26563 0,-3.32031 1.226562,-4.82812 1.070313,-1.3125 2.882813,-1.3125 1.351562,0 2.210937,0.75781 0.867188,0.75781 1.039063,2.09375 z m -5.742188,4.9375 q 0,0.72656 0.304688,1.39062 0.3125,0.66407 0.867187,1.01563 0.554688,0.34375 1.164063,0.34375 0.890625,0 1.53125,-0.71875 0.640625,-0.71875 0.640625,-1.95313 0,-1.1875 -0.632813,-1.86718 -0.632812,-0.6875 -1.59375,-0.6875 -0.953125,0 -1.617187,0.6875 -0.664063,0.67968 -0.664063,1.78906 z"
         style="font-style:normal;font-variant:normal;font-weight:normal;font-stretch:normal;font-size:16px;font-family:Arial;-inkscape-font-specification:Arial;fill:#cccccc"
         id="path4731"
         inkscape:connector-curvature="0" />
    </g>
    <g
       aria-label="B"
       style="font-style:normal;font-variant:normal;font-weight:normal;font-stretch:normal;font-size:40px;line-height:1.25;font-family:ScratchFont;-inkscape-font-specification:ScratchFont;letter-spacing:0px;word-spacing:0px;fill:#cccccc;fill-opacity:1;stroke:none"
       id="text4507-4"
       transform="matrix(1,0,0,0.76637995,-49.717514,130.05962)">
      <path
         d="m 119.90056,765.4458 v -11.45312 h 4.29687 q 1.3125,0 2.10157,0.35156 0.79687,0.34375 1.24218,1.07031 0.45313,0.71875 0.45313,1.50781 0,0.73438 -0.39844,1.38282 -0.39844,0.64843 -1.20312,1.04687 1.03906,0.30469 1.59375,1.03906 0.5625,0.73438 0.5625,1.73438 0,0.80469 -0.34375,1.5 -0.33594,0.6875 -0.83594,1.0625 -0.5,0.375 -1.25781,0.57031 -0.75,0.1875 -1.84375,0.1875 z m 1.51562,-6.64062 h 2.47657 q 1.00781,0 1.44531,-0.13282 0.57812,-0.17187 0.86719,-0.57031 0.29687,-0.39844 0.29687,-1 0,-0.57031 -0.27344,-1 -0.27343,-0.4375 -0.78125,-0.59375 -0.50781,-0.16406 -1.74218,-0.16406 h -2.28907 z m 0,5.28906 h 2.85157 q 0.73437,0 1.03125,-0.0547 0.52343,-0.0937 0.875,-0.3125 0.35156,-0.21875 0.57812,-0.63281 0.22656,-0.42188 0.22656,-0.96875 0,-0.64063 -0.32812,-1.10938 -0.32813,-0.47656 -0.91406,-0.66406 -0.57813,-0.19531 -1.67188,-0.19531 h -2.64844 z"
         style="font-style:normal;font-variant:normal;font-weight:normal;font-stretch:normal;font-size:16px;font-family:Arial;-inkscape-font-specification:Arial;fill:#cccccc"
         id="path4752"
         inkscape:connector-curvature="0" />
    </g>
    <g
       aria-label="C"
       style="font-style:normal;font-variant:normal;font-weight:normal;font-stretch:normal;font-size:40px;line-height:1.25;font-family:ScratchFont;-inkscape-font-specification:ScratchFont;letter-spacing:0px;word-spacing:0px;fill:#cccccc;fill-opacity:1;stroke:none"
       id="text4507-3"
       transform="matrix(1,0,0,0.76637995,-49.717514,129.603)">
      <path
         d="m 177.26598,761.38593 1.51562,0.38281 q -0.47656,1.86719 -1.71875,2.85156 -1.23437,0.97656 -3.02344,0.97656 -1.85156,0 -3.01562,-0.75 -1.15625,-0.75781 -1.76563,-2.1875 -0.60156,-1.42968 -0.60156,-3.07031 0,-1.78906 0.67969,-3.11719 0.6875,-1.33593 1.94531,-2.02343 1.26563,-0.69532 2.78125,-0.69532 1.71875,0 2.89063,0.875 1.17187,0.875 1.63281,2.46094 l -1.49219,0.35156 q -0.39844,-1.25 -1.15625,-1.82031 -0.75781,-0.57031 -1.90625,-0.57031 -1.32031,0 -2.21094,0.63281 -0.88281,0.63281 -1.24218,1.70313 -0.35938,1.0625 -0.35938,2.19531 0,1.46094 0.42188,2.55469 0.42968,1.08593 1.32812,1.625 0.89844,0.53906 1.94531,0.53906 1.27344,0 2.15625,-0.73438 0.88282,-0.73437 1.19532,-2.17968 z"
         style="font-style:normal;font-variant:normal;font-weight:normal;font-stretch:normal;font-size:16px;font-family:Arial;-inkscape-font-specification:Arial;fill:#cccccc"
         id="path4749"
         inkscape:connector-curvature="0" />
    </g>
    <g
       aria-label="D"
       style="font-style:normal;font-variant:normal;font-weight:normal;font-stretch:normal;font-size:40px;line-height:1.25;font-family:ScratchFont;-inkscape-font-specification:ScratchFont;letter-spacing:0px;word-spacing:0px;fill:#cccccc;fill-opacity:1;stroke:none"
       id="text4507-38"
       transform="matrix(1,0,0,0.76637995,-50.174135,129.603)">
      <path
         d="m 219.91875,765.47986 v -11.45313 h 3.94531 q 1.33594,0 2.03906,0.16407 0.98438,0.22656 1.67969,0.82031 0.90625,0.76562 1.35156,1.96094 0.45313,1.1875 0.45313,2.71875 0,1.30468 -0.30469,2.3125 -0.30469,1.00781 -0.78125,1.67187 -0.47656,0.65625 -1.04688,1.03906 -0.5625,0.375 -1.36718,0.57032 -0.79688,0.19531 -1.83594,0.19531 z m 1.51562,-1.35156 h 2.44531 q 1.13282,0 1.77344,-0.21094 0.64844,-0.21094 1.03125,-0.59375 0.53906,-0.53906 0.83594,-1.44531 0.30469,-0.91407 0.30469,-2.21094 0,-1.79688 -0.59375,-2.75781 -0.58594,-0.96875 -1.42969,-1.29688 -0.60938,-0.23437 -1.96094,-0.23437 h -2.40625 z"
         style="font-style:normal;font-variant:normal;font-weight:normal;font-stretch:normal;font-size:16px;font-family:Arial;-inkscape-font-specification:Arial;fill:#cccccc"
         id="path4746"
         inkscape:connector-curvature="0" />
    </g>
    <g
       aria-label="E"
       style="font-style:normal;font-variant:normal;font-weight:normal;font-stretch:normal;font-size:40px;line-height:1.25;font-family:ScratchFont;-inkscape-font-specification:ScratchFont;letter-spacing:0px;word-spacing:0px;fill:#cccccc;fill-opacity:1;stroke:none"
       id="text4507-9"
       transform="matrix(1,0,0,0.76637995,-49.717514,129.14638)">
      <path
         d="M 269.00269,766.18182 V 754.7287 h 8.28125 v 1.35156 h -6.76563 v 3.50781 h 6.33594 v 1.34375 h -6.33594 v 3.89844 h 7.03125 v 1.35156 z"
         style="font-style:normal;font-variant:normal;font-weight:normal;font-stretch:normal;font-size:16px;font-family:Arial;-inkscape-font-specification:Arial;fill:#cccccc"
         id="path4743"
         inkscape:connector-curvature="0" />
    </g>
    <g
       aria-label="F"
       style="font-style:normal;font-variant:normal;font-weight:normal;font-stretch:normal;font-size:40px;line-height:1.25;font-family:ScratchFont;-inkscape-font-specification:ScratchFont;letter-spacing:0px;word-spacing:0px;fill:#cccccc;fill-opacity:1;stroke:none"
       id="text4507-42"
       transform="matrix(1,0,0,0.76637995,-49.717514,129.603)">
      <path
         d="m 321.043,765.52411 v -11.45313 h 7.72656 v 1.35157 h -6.21094 v 3.54687 h 5.375 v 1.35156 h -5.375 v 5.20313 z"
         style="font-style:normal;font-variant:normal;font-weight:normal;font-stretch:normal;font-size:16px;font-family:Arial;-inkscape-font-specification:Arial;fill:#cccccc"
         id="path4740"
         inkscape:connector-curvature="0" />
    </g>
    <g
       aria-label="G"
       style="font-style:normal;font-variant:normal;font-weight:normal;font-stretch:normal;font-size:40px;line-height:1.25;font-family:ScratchFont;-inkscape-font-specification:ScratchFont;letter-spacing:0px;word-spacing:0px;fill:#cccccc;fill-opacity:1;stroke:none"
       id="text4507-8"
       transform="matrix(1,0,0,0.76637995,-49.717514,129.603)">
      <path
         d="m 374.58636,761.44427 v -1.34375 l 4.85157,-0.008 v 4.25 q -1.11719,0.89063 -2.30469,1.34375 -1.1875,0.44531 -2.4375,0.44531 -1.6875,0 -3.07031,-0.71875 -1.375,-0.72656 -2.07813,-2.09375 -0.70312,-1.36718 -0.70312,-3.05468 0,-1.67188 0.69531,-3.11719 0.70312,-1.45313 2.01562,-2.15625 1.3125,-0.70313 3.02344,-0.70313 1.24219,0 2.24219,0.40625 1.00781,0.39844 1.57812,1.11719 0.57032,0.71875 0.86719,1.875 l -1.36719,0.375 q -0.25781,-0.875 -0.64062,-1.375 -0.38281,-0.5 -1.09375,-0.79687 -0.71094,-0.30469 -1.57813,-0.30469 -1.03906,0 -1.79687,0.32031 -0.75781,0.3125 -1.22656,0.82813 -0.46094,0.51562 -0.71875,1.13281 -0.4375,1.0625 -0.4375,2.30469 0,1.53125 0.52343,2.5625 0.53125,1.03125 1.53907,1.53125 1.00781,0.5 2.14062,0.5 0.98438,0 1.92188,-0.375 0.9375,-0.38282 1.42187,-0.8125 v -2.13282 z"
         style="font-style:normal;font-variant:normal;font-weight:normal;font-stretch:normal;font-size:16px;font-family:Arial;-inkscape-font-specification:Arial;fill:#cccccc"
         id="path4737"
         inkscape:connector-curvature="0" />
    </g>
    <g
       aria-label="H"
       style="font-style:normal;font-variant:normal;font-weight:normal;font-stretch:normal;font-size:40px;line-height:1.25;font-family:ScratchFont;-inkscape-font-specification:ScratchFont;letter-spacing:0px;word-spacing:0px;fill:#cccccc;fill-opacity:1;stroke:none"
       id="text4507-7"
       transform="matrix(1,0,0,0.76637995,-49.717514,129.603)">
      <path
         d="m 419.64188,765.89221 v -11.45312 h 1.51562 v 4.70312 h 5.95313 v -4.70312 h 1.51562 v 11.45312 h -1.51562 v -5.39844 h -5.95313 v 5.39844 z"
         style="font-style:normal;font-variant:normal;font-weight:normal;font-stretch:normal;font-size:16px;font-family:Arial;-inkscape-font-specification:Arial;fill:#cccccc"
         id="path4734"
         inkscape:connector-curvature="0" />
    </g>
    <text
       xml:space="preserve"
       style="font-style:normal;font-variant:normal;font-weight:normal;font-stretch:normal;font-size:40px;line-height:1.25;font-family:ScratchFont;-inkscape-font-specification:ScratchFont;letter-spacing:0px;word-spacing:0px;fill:#000000;fill-opacity:1;stroke:none"
       x="169.40639"
       y="827.70465"
       id="text4647"><tspan
         sodipodi:role="line"
         id="tspan4645"
         x="169.40639"
         y="863.83075" /></text>
    <g
       aria-label="I"
       style="font-style:normal;font-variant:normal;font-weight:normal;font-stretch:normal;font-size:40px;line-height:1.25;font-family:ScratchFont;-inkscape-font-specification:ScratchFont;letter-spacing:0px;word-spacing:0px;fill:#000000;fill-opacity:1;stroke:none;stroke-width:1"
       id="text4760"
       transform="matrix(1,0,0,0.76637995,-0.456621,167.31979)">
      <path
         d="m 421.83118,716.76886 v -11.45313 h 1.51562 v 11.45313 z"
         style="font-style:normal;font-variant:normal;font-weight:normal;font-stretch:normal;font-size:16px;font-family:Arial;-inkscape-font-specification:Arial;fill:#cccccc;stroke-width:1"
         id="path4762"
         inkscape:connector-curvature="0" />
    </g>
    <g
       aria-label="7"
       style="font-style:normal;font-variant:normal;font-weight:normal;font-stretch:normal;font-size:40px;line-height:1.25;font-family:ScratchFont;-inkscape-font-specification:ScratchFont;letter-spacing:0px;word-spacing:0px;fill:#000000;fill-opacity:1;stroke:none"
       id="text4767"
       transform="translate(1.1299435)">
      <path
         d="m 3.5826707,1020.9401 v -1.3516 h 7.4140623 v 1.0938 q -1.0937498,1.164 -2.1718748,3.0937 -1.0703125,1.9297 -1.65625,3.9688 -0.421875,1.4375 -0.5390625,3.1484 H 5.1842332 q 0.023437,-1.3516 0.53125,-3.2656 0.5078125,-1.9141 1.453125,-3.6875 0.953125,-1.7813 2.0234375,-3 z"
         style="font-style:normal;font-variant:normal;font-weight:normal;font-stretch:normal;font-size:16px;font-family:Arial;-inkscape-font-specification:Arial;fill:#cccccc"
         id="path4769"
         inkscape:connector-curvature="0" />
    </g>
  </g>
</svg>
